<svg width="40" height="40" viewBox="0 0 40 40" fill="none" xmlns="http://www.w3.org/2000/svg">
<g clip-path="url(#clip0_228_145)">
<path d="M15.625 36.2501C15.5312 36.2501 15.4362 36.2288 15.3462 36.1838C15.0375 36.0288 14.9125 35.6538 15.0662 35.3451L17.5662 30.3451C17.7212 30.0363 18.095 29.9126 18.405 30.0651C18.7137 30.2201 18.8387 30.5951 18.685 30.9038L16.185 35.9038C16.0737 36.1238 15.8537 36.2501 15.625 36.2501Z" fill="#E4E5ED"/>
<path d="M24.3751 36.2501C24.1451 36.2501 23.9251 36.1238 23.8151 35.9051L21.3151 30.9051C21.1601 30.5963 21.2863 30.2213 21.5951 30.0663C21.9038 29.9138 22.2788 30.0376 22.4338 30.3463L24.9338 35.3463C25.0888 35.6551 24.9626 36.0301 24.6538 36.1851C24.5651 36.2288 24.4701 36.2501 24.3751 36.2501Z" fill="#E4E5ED"/>
<path d="M20 36.25C19.655 36.25 19.375 35.97 19.375 35.625V30.625C19.375 30.28 19.655 30 20 30C20.345 30 20.625 30.28 20.625 30.625V35.625C20.625 35.97 20.345 36.25 20 36.25Z" fill="#E4E5ED"/>
<path d="M29.3076 24.0538C29.1513 23.8613 28.8913 23.7825 28.6538 23.8488C23.3588 25.355 16.6413 25.355 11.3451 23.8488C11.1076 23.7825 10.8488 23.8625 10.6913 24.0538C10.5338 24.2463 10.5051 24.5138 10.6176 24.735C11.8476 27.1425 13.3551 29.125 14.9751 30.4688C15.0426 30.5238 15.1201 30.565 15.2038 30.5888C16.7476 31.0275 18.3613 31.25 20.0001 31.25C21.6388 31.25 23.2526 31.0275 24.7963 30.5888C24.8801 30.565 24.9576 30.5238 25.0251 30.4688C26.6451 29.125 28.1513 27.1413 29.3826 24.735C29.4951 24.5125 29.4663 24.245 29.3076 24.0538Z" fill="#444449"/>
<path d="M32.4875 12.04C32.2487 5.28875 26.7638 0 20 0C13.2363 0 7.75125 5.28875 7.51375 12.0113C7.5 12.18 7.5 12.3325 7.5 12.5C7.5 16.3713 8.66625 20.945 10.62 24.7362C10.6988 24.89 10.8387 25.0037 11.005 25.0513C13.7612 25.835 16.8725 26.25 20 26.25C23.1275 26.25 26.2388 25.835 28.9963 25.0513C29.1625 25.0037 29.3025 24.89 29.3812 24.7362C31.3337 20.945 32.5 16.3713 32.5 12.5C32.5 12.3325 32.5 12.18 32.4875 12.04Z" fill="#ED412F"/>
<path d="M28.1125 12.0487C27.9663 5.2925 24.4025 0 20 0C15.5975 0 12.0337 5.2925 11.8887 12.0113C11.875 12.18 11.875 12.3325 11.875 12.5C11.875 16.585 12.7275 21.535 14.0975 25.42C14.1738 25.635 14.3612 25.7913 14.5862 25.8288C15.7887 26.025 17.0213 26.1488 18.25 26.1987C18.2575 26.1987 18.2663 26.1987 18.275 26.1987C18.45 26.1987 18.6163 26.1263 18.735 25.9975C18.86 25.8625 18.9175 25.68 18.895 25.4975C18.42 21.6338 18.125 16.6525 18.125 12.5V12.0638C18.1788 5.305 19.36 1.50125 19.9938 1.25375C20.6475 1.525 21.8225 5.32625 21.875 12.0613V12.5C21.875 16.7412 21.58 21.7212 21.105 25.4963C21.0813 25.6787 21.14 25.8612 21.265 25.9975C21.3837 26.1263 21.5512 26.2 21.725 26.2C21.7338 26.2 21.7425 26.2 21.75 26.2C22.9775 26.15 24.21 26.0262 25.4138 25.83C25.6388 25.7937 25.825 25.6375 25.9013 25.4238C27.2725 21.5838 28.125 16.6325 28.125 12.5C28.125 12.3325 28.125 12.18 28.1125 12.0487Z" fill="#E4E5ED"/>
<path d="M20 0C17.055 0 16.885 10.8237 16.875 12.0625V12.5C16.875 16.7 17.1737 21.7388 17.655 25.6512C17.6912 25.9487 17.935 26.1787 18.2338 26.1987C18.8225 26.2375 19.4113 26.25 20 26.25C20.5888 26.25 21.1775 26.2375 21.7663 26.1987C22.065 26.1787 22.3088 25.95 22.345 25.6525C22.8263 21.83 23.125 16.79 23.125 12.5V12.0625C23.125 12.0612 23.125 12.06 23.125 12.0575C23.115 10.8237 22.945 0 20 0Z" fill="#ED412F"/>
<path d="M24.8825 35.26C24.765 35.0963 24.5762 35 24.375 35H15.625C15.4237 35 15.235 35.0963 15.1175 35.26C15 35.4225 14.9675 35.6325 15.0325 35.8238L15.9975 38.7188C16.2525 39.485 16.9675 40 17.7762 40H22.225C23.0325 40 23.7475 39.485 24.0037 38.7188L24.9687 35.8238C25.0312 35.6313 25 35.4225 24.8825 35.26Z" fill="#FFB000"/>
<path d="M25.625 36.25H14.375C14.03 36.25 13.75 35.97 13.75 35.625C13.75 35.28 14.03 35 14.375 35H25.625C25.97 35 26.25 35.28 26.25 35.625C26.25 35.97 25.97 36.25 25.625 36.25Z" fill="#FF8B00"/>
</g>
<defs>
<clipPath id="clip0_228_145">
<rect width="40" height="40" fill="white"/>
</clipPath>
</defs>
</svg>
