<svg width="25" height="23" viewBox="0 0 25 23" fill="none" xmlns="http://www.w3.org/2000/svg">
<path d="M0.730469 3.25641C0.730469 2.99105 0.835935 2.73656 1.02367 2.54891C1.2114 2.36127 1.46602 2.25586 1.73151 2.25586H23.7544C24.0199 2.25586 24.2745 2.36127 24.4622 2.54891C24.65 2.73656 24.7554 2.99105 24.7554 3.25641V21.2664C24.7554 21.5317 24.65 21.7862 24.4622 21.9739C24.2745 22.1615 24.0199 22.2669 23.7544 22.2669H1.73151C1.46602 22.2669 1.2114 22.1615 1.02367 21.9739C0.835935 21.7862 0.730469 21.5317 0.730469 21.2664V3.25641Z" fill="#206EF8"/>
<path d="M0.730469 8.95967C0.730469 8.77391 0.835935 8.59577 1.02367 8.46442C1.2114 8.33307 1.46602 8.25928 1.73151 8.25928H23.7544C24.0199 8.25928 24.2745 8.33307 24.4622 8.46442C24.65 8.59577 24.7554 8.77391 24.7554 8.95967V21.5667C24.7554 21.7525 24.65 21.9306 24.4622 22.062C24.2745 22.1933 24.0199 22.2671 23.7544 22.2671H1.73151C1.46602 22.2671 1.2114 22.1933 1.02367 22.062C0.835935 21.9306 0.730469 21.7525 0.730469 21.5667V8.95967Z" fill="#87B2FF"/>
<path d="M5.73584 4.25729V1.25439" stroke="#87B2FF" stroke-width="2" stroke-linecap="round" stroke-linejoin="round"/>
<path d="M19.75 4.25729V1.25439" stroke="#87B2FF" stroke-width="2" stroke-linecap="round" stroke-linejoin="round"/>
<path d="M6.23639 12.2605H4.23438V14.2633H6.23639V12.2605Z" fill="#206EF8"/>
<path d="M6.23639 17.2632H4.23438V19.2659H6.23639V17.2632Z" fill="#206EF8"/>
<path d="M11.2413 12.2605H9.23926V14.2633H11.2413V12.2605Z" fill="#206EF8"/>
<path d="M11.2413 17.2632H9.23926V19.2659H11.2413V17.2632Z" fill="#206EF8"/>
<path d="M16.2466 12.2605H14.2446V14.2633H16.2466V12.2605Z" fill="#206EF8"/>
<path d="M16.2466 17.2632H14.2446V19.2659H16.2466V17.2632Z" fill="#206EF8"/>
<path d="M21.252 12.2605H19.25V14.2633H21.252V12.2605Z" fill="#206EF8"/>
<path d="M21.252 17.2632H19.25V19.2659H21.252V17.2632Z" fill="#206EF8"/>
</svg>
