<svg width="32" height="32" viewBox="0 0 32 32" fill="none" xmlns="http://www.w3.org/2000/svg">
<path d="M24.9031 11.45C24.6004 12.6627 23.252 13.2822 22.1337 12.724L21.5598 12.437C21.068 12.1911 20.5264 12.0634 19.9769 12.0634C18.0221 12.0634 16.4375 13.648 16.4375 15.6027V15.615C16.4375 17.169 17.3834 18.5664 18.8262 19.1439C20.0591 19.6374 20.9455 20.7381 21.1634 22.048L21.5108 24.1305C21.6123 24.7412 22.1408 25.1884 22.7594 25.1884C23.1829 25.1884 23.5784 24.9766 23.8129 24.6249C24.6713 23.3369 26.1167 22.5634 27.6646 22.5634H28.3585C29.4033 20.6034 30 18.3712 30 16C30 13.6585 29.4146 11.4526 28.3935 9.51099L26.325 10.0281C25.625 10.2031 25.0781 10.75 24.9031 11.45Z" fill="#1FCC65"/>
<path d="M18.2391 5.48687C19.2121 5.24362 20.2149 5.75637 20.5876 6.68738C21.1993 8.21513 22.9195 8.9755 24.4604 8.39712L27.0451 7.42763C24.4814 4.13238 20.4896 2 16 2C15.7095 2 15.426 2.02625 15.1399 2.04375L15.8504 4.17613C16.182 5.17013 17.2224 5.7415 18.2391 5.48687Z" fill="#1FCC65"/>
<path d="M11.1875 24.1104V24.1034C11.1875 22.594 10.4332 21.1835 9.17675 20.3461C8.776 20.0801 8.30525 19.9375 7.824 19.9375C6.3575 19.9375 5.22263 18.6521 5.40462 17.197C5.71962 14.6744 4.92338 12.15 3.24163 10.2661C2.45063 12.0188 2 13.956 2 16C2 21.7409 5.47725 26.6811 10.4332 28.8389L11.1543 24.512C11.1761 24.379 11.1875 24.2451 11.1875 24.1104Z" fill="#1FCC65"/>
<path d="M27.6647 22.5625C26.1168 22.5625 24.6713 23.336 23.813 24.624C23.5784 24.9767 23.1829 25.1875 22.7594 25.1875C22.1408 25.1875 21.6123 24.7404 21.5108 24.1297L21.1634 22.0472C20.9447 20.7373 20.0592 19.6365 18.8263 19.143C17.3834 18.5655 16.4376 17.1682 16.4376 15.6142V15.6019C16.4376 13.6472 18.0222 12.0625 19.9769 12.0625C20.5264 12.0625 21.0681 12.1903 21.5598 12.4362L22.1338 12.7232C23.2521 13.2823 24.5996 12.6619 24.9032 11.4492C25.0782 10.75 25.6251 10.2032 26.3251 10.0282L28.3944 9.51104C28.0068 8.77429 27.5527 8.08042 27.0452 7.42854L24.4604 8.39804C22.9196 8.97554 21.1993 8.21604 20.5877 6.68829C20.2149 5.75729 19.2122 5.24454 18.2392 5.48779C17.2224 5.74154 16.1812 5.17017 15.8504 4.17617L15.1399 2.04379C9.83482 2.36842 5.32507 5.64967 3.2417 10.2662C4.92345 12.1509 5.72057 14.6753 5.4047 17.197C5.22357 18.6522 6.35757 19.9375 7.82407 19.9375C8.30532 19.9375 8.77607 20.0802 9.17682 20.347C10.4333 21.1844 11.1876 22.594 11.1876 24.1043V24.1113C11.1876 24.2452 11.1762 24.3799 11.1543 24.512L10.4333 28.8389C12.1413 29.5827 14.0217 30 16.0001 30C21.3489 30 26.0022 26.9822 28.3586 22.5625H27.6647Z" fill="#009BE0"/>
</svg>
