<svg width="32" height="32" viewBox="0 0 32 32" fill="none" xmlns="http://www.w3.org/2000/svg">
<g clip-path="url(#clip0_228_477)">
<path d="M15.0001 10H12.7831L9.92911 5.243C9.83811 5.092 9.67611 5 9.50011 5H3.50011C3.31111 5 3.13811 5.107 3.05311 5.276C2.96811 5.446 2.98611 5.648 3.10011 5.8L5.87511 9.5L3.10011 13.2C2.98611 13.351 2.96811 13.554 3.05311 13.723C3.13811 13.893 3.31111 14 3.50011 14H15.0001C16.1031 14 17.0001 13.103 17.0001 12C17.0001 10.897 16.1031 10 15.0001 10Z" fill="#057ED1"/>
<path d="M22.5 20.667C22.224 20.667 22 20.443 22 20.167V2.5C22 2.224 22.224 2 22.5 2C22.776 2 23 2.224 23 2.5V20.167C23 20.443 22.776 20.667 22.5 20.667Z" fill="#FFB000"/>
<path d="M22.5 2H11C9.897 2 9 2.897 9 4V9C9 10.103 9.897 11 11 11H22.5C22.776 11 23 10.776 23 10.5V2.5C23 2.224 22.776 2 22.5 2Z" fill="#009BE0"/>
<path d="M31.0001 26.5C31.0001 26.5 28.3651 22.695 25.8441 20.93C23.3231 19.165 19.8841 19.571 17.8431 21.875L17.7501 21.98C16.2031 23.728 13.6791 24.188 11.6131 23.1C9.12209 21.788 6.09109 22.351 4.23809 24.47L0.125086 29.171C-0.0039144 29.318 -0.0349144 29.528 0.0460856 29.707C0.126086 29.885 0.304086 30 0.500086 30H31.5001C31.7761 30 32.0001 29.776 32.0001 29.5L32.0001 29C32 28.5 32.0001 28 31.0001 26.5Z" fill="#09AD4F"/>
</g>
<defs>
<clipPath id="clip0_228_477">
<rect width="32" height="32" fill="white"/>
</clipPath>
</defs>
</svg>
