<svg width="40" height="40" viewBox="0 0 40 40" fill="none" xmlns="http://www.w3.org/2000/svg">
<g clip-path="url(#clip0_228_159)">
<path d="M23.62 29.0512C23.5025 28.9275 23.3387 28.8575 23.17 28.8575L16.8562 28.835C16.855 28.835 16.855 28.835 16.855 28.835C16.685 28.835 16.5225 28.9037 16.405 29.025C15.4987 29.9625 15 31.1975 15 32.5C15 35.8737 19.405 39.6887 19.5938 39.8487C19.71 39.95 19.855 40 20 40C20.145 40 20.29 39.95 20.4063 39.8487C20.595 39.6887 25 35.8737 25 32.5C25 31.21 24.51 29.985 23.62 29.0512Z" fill="#ED412F"/>
<path d="M21.8237 29.0387C21.7049 28.9162 21.5424 28.8462 21.3737 28.845L18.6412 28.835C18.6399 28.835 18.6399 28.835 18.6387 28.835C18.4699 28.835 18.3074 28.9037 18.1899 29.025C17.7337 29.4962 17.4824 30.1175 17.4824 30.7737C17.4824 32.3675 19.3774 34.0375 19.5937 34.2225C19.7099 34.325 19.8549 34.375 19.9999 34.375C20.1449 34.375 20.2899 34.325 20.4062 34.225C20.6224 34.04 22.5174 32.37 22.5174 30.775C22.5187 30.1262 22.2712 29.5087 21.8237 29.0387Z" fill="#FFB000"/>
<path d="M14.3513 20.1937C14.1875 20.1137 13.9975 20.1087 13.8288 20.1799L6.89375 23.1512C5.74375 23.6449 5 24.7724 5 26.0237V34.3749C5 34.6112 5.13375 34.8274 5.345 34.9337C5.43375 34.9774 5.53 34.9999 5.625 34.9999C5.7575 34.9999 5.89 34.9574 6 34.8749L16 27.3749C16.2025 27.2237 16.2925 26.9662 16.2313 26.7224L14.6813 20.6012C14.635 20.4224 14.515 20.2749 14.3513 20.1937Z" fill="#444449"/>
<path d="M33.1064 23.1513L26.1714 20.18C26.0027 20.1088 25.8139 20.1125 25.6477 20.1938C25.4839 20.275 25.3627 20.4238 25.3189 20.6013L23.7689 26.7225C23.7064 26.9663 23.7977 27.2238 24.0002 27.375L34.0002 34.875C34.1102 34.9575 34.2414 35 34.3752 35C34.4702 35 34.5664 34.9775 34.6552 34.9338C34.8664 34.8275 35.0002 34.6113 35.0002 34.375V26.0238C35.0002 24.7725 34.2564 23.645 33.1064 23.1513Z" fill="#444449"/>
<path d="M26.6802 17.5601C26.4415 17.4363 26.1552 17.4751 25.9627 17.6563C24.3402 19.1676 22.2227 20.0001 20.0002 20.0001C17.7727 20.0001 15.6552 19.1638 14.0415 17.6451C13.8465 17.4626 13.5577 17.4226 13.3227 17.5463C13.0877 17.6701 12.9552 17.9288 12.994 18.1926C13.7302 23.1276 14.979 26.9138 15.0315 27.0726C15.1165 27.3276 15.3565 27.5001 15.6252 27.5001H24.3752C24.6452 27.5001 24.8827 27.3276 24.969 27.0726C25.0215 26.9138 26.269 23.1276 27.0065 18.2063C27.0465 17.9426 26.914 17.6838 26.6802 17.5601Z" fill="#009BE0"/>
<path d="M20.1712 0.0238037C20.0587 -0.00744629 19.94 -0.00744629 19.8287 0.0238037C15.5137 1.2563 12.5 6.13005 12.5 11.8751C12.5 13.8413 12.6662 15.9663 12.995 18.1913C13.0162 18.3313 13.0825 18.4588 13.185 18.5563C15.0312 20.2926 17.4525 21.2501 20 21.2501C22.54 21.2501 24.96 20.2988 26.8137 18.5701C26.9175 18.4726 26.9862 18.3438 27.0062 18.2038C27.3337 15.9626 27.5 13.8326 27.5 11.8751C27.5 6.13005 24.4862 1.2563 20.1712 0.0238037Z" fill="#E4E5ED"/>
<path d="M20 15C22.0711 15 23.75 13.3211 23.75 11.25C23.75 9.17893 22.0711 7.5 20 7.5C17.9289 7.5 16.25 9.17893 16.25 11.25C16.25 13.3211 17.9289 15 20 15Z" fill="#009BE0"/>
<path d="M24.375 26.25H15.625C15.28 26.25 15 26.53 15 26.875V29.375C15 29.72 15.28 30 15.625 30H24.375C24.72 30 25 29.72 25 29.375V26.875C25 26.53 24.72 26.25 24.375 26.25Z" fill="#057ED1"/>
<path d="M15.625 40C15.28 40 15 39.72 15 39.375V38.125C15 37.78 15.28 37.5 15.625 37.5C15.97 37.5 16.25 37.78 16.25 38.125V39.375C16.25 39.72 15.97 40 15.625 40Z" fill="#FFB000"/>
<path d="M24.375 40C24.03 40 23.75 39.72 23.75 39.375V38.125C23.75 37.78 24.03 37.5 24.375 37.5C24.72 37.5 25 37.78 25 38.125V39.375C25 39.72 24.72 40 24.375 40Z" fill="#FFB000"/>
<path d="M26.875 36.25C26.53 36.25 26.25 35.97 26.25 35.625V34.375C26.25 34.03 26.53 33.75 26.875 33.75C27.22 33.75 27.5 34.03 27.5 34.375V35.625C27.5 35.97 27.22 36.25 26.875 36.25Z" fill="#FFB000"/>
<path d="M13.125 36.25C12.78 36.25 12.5 35.97 12.5 35.625V34.375C12.5 34.03 12.78 33.75 13.125 33.75C13.47 33.75 13.75 34.03 13.75 34.375V35.625C13.75 35.97 13.47 36.25 13.125 36.25Z" fill="#FFB000"/>
</g>
<defs>
<clipPath id="clip0_228_159">
<rect width="40" height="40" fill="white"/>
</clipPath>
</defs>
</svg>
