<svg width="40" height="40" viewBox="0 0 40 40" fill="none" xmlns="http://www.w3.org/2000/svg">
<g clip-path="url(#clip0_228_177)">
<path d="M37.0713 6.8012C37.2425 6.63495 37.3038 6.3862 37.23 6.1612C37.1563 5.93495 36.96 5.76995 36.7263 5.7362L31.6013 4.9912L29.31 0.348701C29.1 -0.0787988 28.3988 -0.0787988 28.19 0.348701L25.8988 4.9912L20.7738 5.7362C20.5388 5.76995 20.3425 5.93495 20.27 6.1612C20.1963 6.38745 20.2575 6.63495 20.4288 6.8012L24.1363 10.415L23.26 15.5187C23.22 15.7537 23.3163 15.99 23.5088 16.13C23.7013 16.2712 23.9563 16.2875 24.1663 16.1775L28.75 13.7687L33.3338 16.1775C33.425 16.2262 33.5238 16.25 33.6238 16.25C33.7538 16.25 33.8825 16.21 33.9913 16.13C34.1838 15.99 34.28 15.7537 34.24 15.5187L33.3638 10.415L37.0713 6.8012Z" fill="#FFB000"/>
<path d="M33.1576 3.93261C33.3501 3.93261 33.5413 3.84386 33.6626 3.67511L34.3976 2.66386C34.6001 2.38386 34.5388 1.99386 34.2601 1.79136C33.9813 1.58886 33.5913 1.65011 33.3876 1.92886L32.6526 2.94011C32.4501 3.22011 32.5113 3.61011 32.7901 3.81261C32.9013 3.89386 33.0301 3.93261 33.1576 3.93261Z" fill="#ED412F"/>
<path d="M21.4248 11.0976L20.2361 11.4838C19.9073 11.5901 19.7286 11.9438 19.8348 12.2713C19.9198 12.5351 20.1661 12.7038 20.4298 12.7038C20.4936 12.7038 20.5598 12.6938 20.6223 12.6738L21.8111 12.2876C22.1398 12.1813 22.3186 11.8276 22.2123 11.5001C22.1073 11.1726 21.7511 10.9926 21.4248 11.0976Z" fill="#ED412F"/>
<path d="M37.2649 11.4851L36.0749 11.0976C35.7499 10.9926 35.3936 11.1726 35.2874 11.5001C35.1811 11.8276 35.3611 12.1801 35.6886 12.2876L36.8774 12.6738C36.9411 12.6951 37.0074 12.7038 37.0699 12.7038C37.3336 12.7038 37.5786 12.5363 37.6649 12.2713C37.7724 11.9438 37.5924 11.5913 37.2649 11.4851Z" fill="#ED412F"/>
<path d="M23.8359 3.67498C23.9584 3.84373 24.1484 3.93248 24.3409 3.93248C24.4696 3.93248 24.5971 3.89373 24.7084 3.81248C24.9884 3.60998 25.0484 3.21873 24.8459 2.93998L24.1121 1.92873C23.9084 1.64873 23.5159 1.58873 23.2396 1.79123C22.9596 1.99373 22.8996 2.38498 23.1021 2.66373L23.8359 3.67498Z" fill="#ED412F"/>
<path d="M28.75 16.25C28.405 16.25 28.125 16.53 28.125 16.875V18.125C28.125 18.47 28.405 18.75 28.75 18.75C29.095 18.75 29.375 18.47 29.375 18.125V16.875C29.375 16.53 29.095 16.25 28.75 16.25Z" fill="#ED412F"/>
<path d="M39.8175 22.6825C38.1388 21.0037 35.56 20.71 33.5463 21.9688L28.2363 25.2875C27.2288 25.9175 26.0675 26.25 24.8788 26.25H18.2288C17.8275 26.25 17.5 25.9225 17.5 25.5212C17.5 25.1637 17.7563 24.8612 18.1088 24.8025L20.7788 24.3575C23.225 23.95 25 21.855 25 19.375C25 19.03 24.72 18.75 24.375 18.75H19.175C15.1388 18.75 11.3788 20.5575 8.85753 23.7087C8.08878 24.67 7.17878 25.505 6.15253 26.1887L4.02878 27.605C3.87253 27.7087 3.77128 27.8775 3.75378 28.0637C3.73628 28.25 3.80128 28.435 3.93378 28.5675L11.4338 36.0675C11.555 36.1887 11.715 36.25 11.875 36.25C12.035 36.25 12.195 36.1887 12.3175 36.0675L13.0888 35.2962C14.07 34.3137 15.43 33.75 16.82 33.75H25.1413C27.2188 33.75 29.2188 32.99 30.7713 31.6087L39.79 23.5912C39.9188 23.4775 39.995 23.315 40 23.1425C40.005 22.9712 39.9388 22.805 39.8175 22.6825Z" fill="#FFBE7D"/>
<path d="M12.6823 35.5488L4.44982 27.3163C3.71857 26.585 2.52982 26.585 1.79857 27.3163L0.182324 28.9325C-0.0614258 29.1763 -0.0614258 29.5725 0.182324 29.8163L10.1823 39.8163C10.3048 39.9388 10.4648 40 10.6248 40C10.7848 40 10.9448 39.9388 11.0673 39.8175L12.6836 38.2013C13.4136 37.47 13.4136 36.28 12.6823 35.5488Z" fill="#009BE0"/>
</g>
<defs>
<clipPath id="clip0_228_177">
<rect width="40" height="40" fill="white"/>
</clipPath>
</defs>
</svg>
