<svg width="40" height="40" viewBox="0 0 40 40" fill="none" xmlns="http://www.w3.org/2000/svg">
<g clip-path="url(#clip0_228_188)">
<path d="M20.625 21.25H4.375C2.6525 21.25 1.25 22.6512 1.25 24.375V35.625C1.25 35.97 1.53 36.25 1.875 36.25H23.125C23.47 36.25 23.75 35.97 23.75 35.625V24.375C23.75 22.6512 22.3487 21.25 20.625 21.25Z" fill="#E4E5ED"/>
<path d="M35.625 0H19.375C17.6525 0 16.25 1.40125 16.25 3.125V14.375C16.25 14.72 16.53 15 16.875 15H38.125C38.47 15 38.75 14.72 38.75 14.375V3.125C38.75 1.40125 37.3488 0 35.625 0Z" fill="#E4E5ED"/>
<path d="M12.5 30C13.8807 30 15 28.8807 15 27.5C15 26.1193 13.8807 25 12.5 25C11.1193 25 10 26.1193 10 27.5C10 28.8807 11.1193 30 12.5 30Z" fill="#009BE0"/>
<path d="M27.5 8.75C28.8807 8.75 30 7.63071 30 6.25C30 4.86929 28.8807 3.75 27.5 3.75C26.1193 3.75 25 4.86929 25 6.25C25 7.63071 26.1193 8.75 27.5 8.75Z" fill="#009BE0"/>
<path d="M16.7874 33.3862C16.3611 32.1087 15.1699 31.25 13.8236 31.25H11.1761C9.82861 31.25 8.63736 32.1087 8.21111 33.3862L7.53111 35.4275C7.46736 35.6175 7.49986 35.8275 7.61736 35.99C7.73486 36.1537 7.92361 36.25 8.12486 36.25H16.8749C17.0761 36.25 17.2649 36.1537 17.3824 35.99C17.4999 35.8275 17.5324 35.6175 17.4686 35.4275L16.7874 33.3862Z" fill="#009BE0"/>
<path d="M32.3813 14.74C32.5001 14.5775 32.5313 14.3675 32.4676 14.1775L31.7876 12.1362C31.3613 10.8587 30.1701 10 28.8238 10H26.1776C24.8313 10 23.6401 10.8587 23.2126 12.1362L22.5326 14.1775C22.4688 14.3675 22.5013 14.5775 22.6188 14.74C22.7351 14.9037 22.9238 15 23.1251 15H31.8751C32.0763 15 32.2651 14.9037 32.3813 14.74Z" fill="#009BE0"/>
<path d="M23.125 35H1.875C0.84125 35 0 35.8412 0 36.875C0 38.5987 1.4025 40 3.125 40H21.875C23.5987 40 25 38.5987 25 36.875C25 35.8412 24.1588 35 23.125 35Z" fill="#444449"/>
<path d="M38.125 13.75H16.875C15.8412 13.75 15 14.5912 15 15.625C15 17.3487 16.4025 18.75 18.125 18.75H36.875C38.5987 18.75 40 17.3487 40 15.625C40 14.5912 39.1588 13.75 38.125 13.75Z" fill="#444449"/>
<path d="M9.81754 15.1825C9.57379 14.9387 9.17754 14.9387 8.93379 15.1825L7.50004 16.6162V13.125C7.50004 10.0237 10.0238 7.5 13.125 7.5C13.47 7.5 13.75 7.22 13.75 6.875C13.75 6.53 13.47 6.25 13.125 6.25C9.33379 6.25 6.25004 9.335 6.25004 13.125V16.6162L4.81754 15.1837C4.57379 14.94 4.17754 14.94 3.93379 15.1837C3.69004 15.4275 3.69004 15.8237 3.93379 16.0675L6.43254 18.5662L6.43379 18.5675C6.49379 18.6275 6.56379 18.6725 6.63754 18.7025C6.71004 18.7325 6.79004 18.75 6.87504 18.75C6.96004 18.75 7.04004 18.7325 7.11379 18.7025C7.18754 18.6725 7.25754 18.6275 7.31754 18.5675L7.31879 18.5662L9.81754 16.0675C10.0613 15.8225 10.0613 15.4275 9.81754 15.1825Z" fill="#FFB000"/>
<path d="M36.0675 23.9325L33.5687 21.4337L33.5675 21.4325C33.5075 21.3725 33.4375 21.3275 33.3637 21.2975C33.29 21.2675 33.21 21.25 33.125 21.25C33.04 21.25 32.96 21.2675 32.8863 21.2975C32.8125 21.3275 32.7425 21.3725 32.6825 21.4325L32.6813 21.4337L30.1825 23.9325C29.9387 24.1762 29.9387 24.5725 30.1825 24.8163C30.4262 25.06 30.8225 25.06 31.0663 24.8163L32.5 23.3838V26.875C32.5 29.9762 29.9762 32.5 26.875 32.5C26.53 32.5 26.25 32.78 26.25 33.125C26.25 33.47 26.53 33.75 26.875 33.75C30.665 33.75 33.75 30.665 33.75 26.875V23.3838L35.1825 24.8163C35.305 24.9388 35.465 25 35.625 25C35.785 25 35.945 24.9387 36.0675 24.8175C36.3112 24.5725 36.3112 24.1775 36.0675 23.9325Z" fill="#FFB000"/>
</g>
<defs>
<clipPath id="clip0_228_188">
<rect width="40" height="40" fill="white"/>
</clipPath>
</defs>
</svg>
